<svg xmlns="http://www.w3.org/2000/svg" fill="none" viewBox="0 0 174 33">
  <path fill="#FFAD57" d="M15.024 0C6.725 0 0 6.725 0 15.024c0 7.626 5.684 13.928 13.048 14.895l.95 1.504a1.197 1.197 0 0 0 2.053 0l.948-1.504c7.365-.967 13.048-7.267 13.048-14.895C30.047 6.725 23.322 0 15.024 0Zm4.285 26.255 3.815-6.048.036-.057a9.614 9.614 0 0 0-8.134-14.74c-4.8 0-8.778 3.515-9.499 8.114h3.061a6.612 6.612 0 0 1 12.876 0h-2.51a4.206 4.206 0 1 0 0 3.002h2.51a6.552 6.552 0 0 1-.87 2.06l-3.7 5.871-1.63 2.581-.238.38-.238-.38-1.627-2.58-3.703-5.872-.026-.038a6.496 6.496 0 0 1-.844-2.022h-3.06a9.568 9.568 0 0 0 1.362 3.623l.046.074 3.803 6.033C6.216 24.528 3.005 20.15 3.005 15.02c0-6.638 5.38-12.019 12.019-12.019 6.638 0 12.019 5.381 12.019 12.02 0 5.128-3.213 9.506-7.734 11.23v.003Zm-2.482-11.231a1.805 1.805 0 1 1-3.609-.002 1.805 1.805 0 0 1 3.61.002Z"/>
  <path fill="#1F2937" d="M39.203 22.108c-1.04-.546-1.853-1.303-2.438-2.276-.585-.97-.878-2.07-.878-3.302 0-1.232.293-2.333.878-3.303.585-.97 1.398-1.726 2.438-2.276 1.039-.546 2.211-.818 3.523-.818 1.31 0 2.478.275 3.51.819a6.099 6.099 0 0 1 2.425 2.275c.585.97.877 2.071.877 3.303 0 1.232-.292 2.332-.877 3.302a6.116 6.116 0 0 1-2.425 2.276c-1.032.547-2.202.819-3.51.819-1.309 0-2.482-.272-3.523-.819Zm5.796-3.071c.593-.624.89-1.458.89-2.505 0-1.046-.297-1.88-.89-2.504-.593-.623-1.35-.937-2.273-.937-.924 0-1.686.311-2.287.937-.6.624-.9 1.46-.9 2.504 0 1.045.3 1.881.9 2.505.6.623 1.363.936 2.287.936.923 0 1.68-.31 2.273-.936Zm17.99-7.518c.947.923 1.422 2.294 1.422 4.11v7.113h-3.603v-6.559c0-.985-.216-1.721-.647-2.206-.43-.485-1.054-.726-1.87-.726-.909 0-1.632.282-2.171.844-.539.562-.808 1.398-.808 2.504v6.143h-3.603V10.318h3.441v1.455a4.775 4.775 0 0 1 1.778-1.211 6.196 6.196 0 0 1 2.333-.429c1.54 0 2.781.462 3.73 1.386h-.002Zm17.238-5.912v17.135h-3.44V21.31c-.894 1.078-2.187 1.617-3.88 1.617-1.17 0-2.228-.262-3.177-.785a5.619 5.619 0 0 1-2.228-2.24c-.538-.97-.808-2.094-.808-3.372s.27-2.402.808-3.372a5.635 5.635 0 0 1 2.228-2.24c.947-.523 2.006-.785 3.176-.785 1.586 0 2.825.5 3.718 1.501V5.607h3.603Zm-4.434 13.427c.6-.623.9-1.457.9-2.504s-.3-1.881-.9-2.505c-.6-.623-1.355-.936-2.263-.936-.908 0-1.686.31-2.286.936-.6.624-.901 1.46-.901 2.505 0 1.044.3 1.88.9 2.504.601.624 1.363.937 2.287.937.924 0 1.663-.31 2.263-.937Zm19.63-1.485h-9.4c.17.77.57 1.378 1.201 1.824.632.447 1.417.67 2.356.67.647 0 1.219-.095 1.722-.288.5-.192.964-.495 1.396-.91l1.916 2.078c-1.17 1.34-2.879 2.009-5.126 2.009-1.401 0-2.64-.272-3.718-.819-1.078-.546-1.91-1.303-2.495-2.276-.585-.97-.877-2.07-.877-3.302 0-1.232.287-2.312.865-3.292a6.067 6.067 0 0 1 2.378-2.286c1.009-.547 2.135-.819 3.382-.819 1.247 0 2.317.262 3.303.785a5.732 5.732 0 0 1 2.32 2.253c.561.978.843 2.112.843 3.405 0 .046-.023.37-.069.97l.003-.002Zm-8.43-3.996c-.554.462-.892 1.093-1.016 1.894h6.12c-.123-.785-.462-1.411-1.016-1.88-.554-.47-1.232-.704-2.032-.704s-1.501.231-2.056.693v-.003Zm22.771-3.233-5.242 12.425h-3.719L95.584 10.32h3.718l3.441 8.453 3.557-8.453h3.464Zm10.276 1.188c1.032.916 1.548 2.3 1.548 4.147v7.09h-3.372v-1.548c-.677 1.155-1.94 1.732-3.787 1.732-.955 0-1.784-.161-2.482-.485-.7-.323-1.236-.77-1.603-1.339a3.483 3.483 0 0 1-.555-1.94c0-1.154.434-2.063 1.304-2.725.87-.662 2.212-.993 4.031-.993h2.864c0-.785-.239-1.388-.716-1.811-.478-.424-1.193-.637-2.148-.637-.662 0-1.314.105-1.953.313-.639.208-1.183.49-1.626.842l-1.294-2.517c.678-.478 1.489-.847 2.438-1.109a10.905 10.905 0 0 1 2.92-.392c1.924 0 3.402.459 4.434 1.372h-.003Zm-3.071 8.568c.477-.285.816-.706 1.016-1.26v-1.27h-2.471c-1.478 0-2.217.485-2.217 1.455 0 .462.182.829.544 1.098.362.27.857.403 1.488.403.632 0 1.163-.141 1.64-.426Zm27.263-8.568c.916.916 1.376 2.292 1.376 4.124v7.113h-3.603v-6.559c0-.985-.205-1.722-.611-2.207-.408-.485-.99-.726-1.742-.726-.847 0-1.516.275-2.009.821-.493.547-.739 1.36-.739 2.438v6.235h-3.603V16.19c0-1.956-.785-2.933-2.355-2.933-.832 0-1.494.274-1.986.82-.493.547-.739 1.36-.739 2.439v6.235h-3.603V10.325h3.441v1.432a4.528 4.528 0 0 1 1.699-1.2 5.7 5.7 0 0 1 2.204-.416c.877 0 1.67.172 2.378.518a4.21 4.21 0 0 1 1.709 1.514 5.095 5.095 0 0 1 1.927-1.501c.778-.354 1.627-.531 2.554-.531 1.555 0 2.789.459 3.705 1.373l-.003-.006Zm6.903 10.6c-1.04-.546-1.853-1.303-2.438-2.276-.585-.97-.878-2.07-.878-3.302 0-1.232.293-2.333.878-3.303.585-.97 1.398-1.726 2.438-2.276 1.039-.546 2.211-.818 3.52-.818 1.309 0 2.479.275 3.51.819a6.096 6.096 0 0 1 2.425 2.275c.585.97.878 2.071.878 3.303 0 1.232-.293 2.332-.878 3.302a6.113 6.113 0 0 1-2.425 2.276c-1.031.547-2.201.819-3.51.819-1.309 0-2.481-.272-3.52-.819Zm5.796-3.071c.593-.624.888-1.458.888-2.505 0-1.046-.298-1.88-.888-2.504-.593-.623-1.35-.937-2.276-.937-.926 0-1.686.311-2.286.937-.601.624-.901 1.46-.901 2.504 0 1.045.3 1.881.901 2.505.6.623 1.362.936 2.286.936.924 0 1.681-.31 2.276-.936Zm7.865 3.51c-.986-.254-1.771-.575-2.356-.96l1.201-2.586c.554.354 1.224.644 2.009.867a8.416 8.416 0 0 0 2.31.334c1.524 0 2.286-.377 2.286-1.132 0-.354-.208-.608-.624-.762-.415-.154-1.054-.285-1.916-.392-1.017-.154-1.856-.332-2.518-.532a3.92 3.92 0 0 1-1.721-1.062c-.485-.508-.727-1.232-.727-2.17 0-.786.226-1.481.683-2.09.454-.607 1.116-1.08 1.986-1.42.87-.34 1.896-.509 3.082-.509.877 0 1.75.098 2.62.287.869.193 1.588.46 2.16.796l-1.201 2.563a7.168 7.168 0 0 0-3.579-.924c-.77 0-1.347.108-1.732.324-.385.215-.578.492-.578.831 0 .385.208.655.624.808.416.154 1.078.3 1.986.44 1.016.169 1.847.35 2.494.543a3.763 3.763 0 0 1 1.686 1.05c.477.508.716 1.216.716 2.124a3.28 3.28 0 0 1-.693 2.056c-.462.6-1.134 1.067-2.022 1.398-.885.331-1.937.495-3.154.495a12.19 12.19 0 0 1-3.025-.38l.003.003Z"/>
</svg>