<svg xmlns="http://www.w3.org/2000/svg" viewBox="0 0 1200 1200">
  <path fill="#ffad57" d="M600 100c-250.99 0-454.53 203.46-454.53 454.53 0 232.61 174.77 424.44 400.17 451.35l54.35 94.13 54.35-94.13c225.4-26.83 400.17-218.66 400.17-451.35 0-251.07-203.46-454.53-454.52-454.53Zm115.84 799.33 119.02-206.17 1.32-2.25a266.931 266.931 0 0 0 19.31-40.86c7.52-20.16 12.79-41.48 15.35-63.66 1.24-10.47 1.86-21.09 1.86-31.79 0-150.66-122.12-272.7-272.7-272.7S327.3 404.02 327.3 554.6c0 10.78.62 21.4 1.86 31.79h64.2c-1.55-10.39-2.4-21.01-2.4-31.79 0-115.45 93.59-209.12 209.12-209.12 104.67 0 191.36 76.92 206.71 177.25H713.9c-13.88-49.86-59.55-86.38-113.82-86.38-65.29 0-118.17 52.88-118.17 118.17s52.88 118.17 118.17 118.17c54.2 0 99.95-36.52 113.82-86.38h92.89c-3.49 22.56-10.55 44.04-20.63 63.66-1.55 3.1-3.26 6.12-4.96 9.07v.15l-87.62 151.59L632.4 916.7l-32.33 55.98-32.33-55.98-61.18-105.92-87.54-151.59v-.15c-1.78-2.95-3.49-5.97-5.04-9.07h-69.47c5.27 14.27 11.79 27.91 19.31 40.94l120.34 208.42c-143.99-48.38-247.73-184.46-247.73-344.81 0-200.82 162.83-363.65 363.65-363.65S963.73 353.7 963.73 554.52c0 160.27-103.74 296.42-247.73 344.81h-.16Zm-61.33-344.81c0 30.08-24.42 54.51-54.51 54.51s-54.51-24.42-54.51-54.51 24.42-54.51 54.51-54.51 54.51 24.42 54.51 54.51Z"/>
</svg>