<svg xmlns="http://www.w3.org/2000/svg" fill="none" viewBox="0 0 31 33">
  <path fill="#FFAD57" d="M15.024 0C6.725 0 0 6.725 0 15.024c0 7.626 5.684 13.928 13.048 14.895l.95 1.504a1.197 1.197 0 0 0 2.053 0l.948-1.504c7.365-.967 13.048-7.267 13.048-14.895C30.047 6.725 23.322 0 15.024 0Zm4.285 26.255 3.815-6.048.036-.057a9.614 9.614 0 0 0-8.134-14.74c-4.8 0-8.778 3.515-9.499 8.114h3.061a6.612 6.612 0 0 1 12.876 0h-2.51a4.206 4.206 0 1 0 0 3.002h2.51a6.552 6.552 0 0 1-.87 2.06l-3.7 5.871-1.63 2.581-.238.38-.238-.38-1.627-2.58-3.703-5.872-.026-.038a6.496 6.496 0 0 1-.844-2.022h-3.06a9.568 9.568 0 0 0 1.362 3.623l.046.074 3.803 6.033C6.216 24.528 3.005 20.15 3.005 15.02c0-6.638 5.38-12.019 12.019-12.019 6.638 0 12.019 5.381 12.019 12.02 0 5.128-3.213 9.506-7.734 11.23v.003Zm-2.482-11.231a1.805 1.805 0 1 1-3.609-.002 1.805 1.805 0 0 1 3.61.002Z"/>
</svg>