<svg xmlns="http://www.w3.org/2000/svg"  viewBox="0 0 1200 1200">
  <path fill="#ffffff" d="M0 0h1200v1200H0z"/>
  <path fill="#ffad57" d="M600 336.5c-133.02 0-240.9 107.83-240.9 240.9 0 123.28 92.63 224.95 212.09 239.21L600 866.5l28.81-49.89C748.27 802.39 840.9 700.72 840.9 577.4c0-133.07-107.83-240.9-240.9-240.9Zm61.39 423.65 63.08-109.27.7-1.19c3.99-6.86 7.44-14.14 10.23-21.66 3.99-10.68 6.78-21.99 8.14-33.74.66-5.55.99-11.18.99-16.85 0-79.85-64.72-144.53-144.53-144.53s-144.53 64.72-144.53 144.53c0 5.71.33 11.34.99 16.85h34.03c-.82-5.51-1.27-11.14-1.27-16.85 0-61.19 49.6-110.83 110.83-110.83 55.48 0 101.42 40.77 109.56 93.94h-49.23c-7.36-26.42-31.56-45.78-60.33-45.78-34.6 0-62.63 28.03-62.63 62.63s28.03 62.63 62.63 62.63c28.73 0 52.97-19.36 60.33-45.78h49.23a111.016 111.016 0 0 1-10.93 33.74c-.82 1.64-1.73 3.25-2.63 4.81v.08l-46.44 80.34-32.42 56.14-17.14 29.67-17.14-29.67-32.42-56.14-46.4-80.34v-.08c-.95-1.56-1.85-3.16-2.67-4.81H464.6c2.79 7.56 6.25 14.79 10.23 21.7l63.78 110.46c-76.31-25.64-131.3-97.76-131.3-182.75 0-106.44 86.3-192.74 192.74-192.74s192.73 86.3 192.73 192.74c0 84.94-54.98 157.1-131.3 182.75h-.08ZM628.88 577.4c0 15.94-12.94 28.89-28.89 28.89s-28.89-12.94-28.89-28.89 12.94-28.89 28.89-28.89 28.89 12.94 28.89 28.89Z"/>
</svg>