<svg xmlns="http://www.w3.org/2000/svg" fill="none" viewBox="0 0 230 40">
  <path shape-rendering="auto" fill="#fff" d="M50.661 29.08c-1.391-.748-2.475-1.788-3.25-3.125-.782-1.337-1.172-2.844-1.172-4.533 0-1.689.39-3.19 1.171-4.517.781-1.325 1.865-2.36 3.252-3.108 1.386-.748 2.948-1.122 4.676-1.122 1.727 0 3.322.374 4.709 1.122 1.386.748 2.47 1.783 3.251 3.108.781 1.326 1.172 2.834 1.172 4.517 0 1.683-.39 3.202-1.172 4.533a8.191 8.191 0 0 1-3.251 3.125c-1.387.748-2.96 1.122-4.71 1.122-1.749 0-3.29-.374-4.676-1.122Zm8.335-3.78c.963-.984 1.441-2.277 1.441-3.878 0-1.6-.478-2.894-1.441-3.878-.963-.985-2.178-1.475-3.653-1.475-1.474 0-2.685.49-3.636 1.475-.952.984-1.425 2.277-1.425 3.878 0 1.6.473 2.894 1.425 3.878.951.985 2.162 1.475 3.636 1.475 1.474 0 2.69-.49 3.653-1.474Zm22.858-10.738c1.304 1.26 1.953 3.13 1.953 5.606v9.407c0 .22-.182.402-.402.402h-2.404c-.66 0-1.2-.54-1.2-1.2v-8.092c0-1.496-.351-2.624-1.055-3.383-.704-.76-1.711-1.14-3.015-1.14-1.474 0-2.64.446-3.493 1.332-.853.886-1.282 2.162-1.282 3.829v8.252c0 .22-.182.402-.402.402H68.15c-.66 0-1.2-.54-1.2-1.2V13.264c0-.22.182-.402.403-.402h3.014c.22 0 .402.182.402.402v1.81c.66-.793 1.496-1.387 2.497-1.794 1.002-.407 2.135-.61 3.395-.61 2.156 0 3.89.632 5.193 1.892Zm22.599-7.966v22.176c0 .66-.539 1.2-1.199 1.2h-2.245a.403.403 0 0 1-.401-.402v-1.81a6.168 6.168 0 0 1-2.454 1.826c-.973.407-2.046.61-3.218.61-1.645 0-3.125-.362-4.44-1.089a7.81 7.81 0 0 1-3.091-3.091c-.748-1.337-1.123-2.866-1.123-4.6 0-1.732.375-3.256 1.123-4.582a7.84 7.84 0 0 1 3.091-3.075c1.315-.726 2.795-1.09 4.44-1.09 1.133 0 2.168.193 3.108.578a6.269 6.269 0 0 1 2.404 1.733V6.602c0-.22.182-.402.402-.402h3.207c.22 0 .402.181.402.402l-.006-.006Zm-6.442 19.519a4.76 4.76 0 0 0 1.827-1.876c.451-.815.671-1.75.671-2.822 0-1.073-.226-2.008-.671-2.823-.451-.808-1.056-1.435-1.827-1.876-.77-.44-1.634-.654-2.596-.654-.963 0-1.827.22-2.597.654-.77.44-1.375 1.062-1.826 1.876-.452.815-.672 1.75-.672 2.823 0 1.072.226 2.007.672 2.822a4.752 4.752 0 0 0 1.826 1.876c.77.44 1.634.654 2.597.654.962 0 1.826-.22 2.596-.654Zm26.016-3.417h-13.093c.236 1.26.847 2.261 1.843 2.999.996.737 2.228 1.105 3.702 1.105 1.728 0 3.174-.522 4.346-1.567a.404.404 0 0 1 .578.027l1.639 1.887c.132.154.138.385 0 .528a7.31 7.31 0 0 1-2.684 1.821c-1.178.468-2.498.704-3.972.704-1.882 0-3.538-.374-4.968-1.122-1.43-.748-2.536-1.788-3.317-3.125-.782-1.337-1.172-2.844-1.172-4.533 0-1.689.379-3.169 1.139-4.5a8.06 8.06 0 0 1 3.157-3.125c1.348-.748 2.861-1.122 4.55-1.122 1.689 0 3.158.369 4.473 1.106a7.816 7.816 0 0 1 3.075 3.108c.737 1.337 1.106 2.877 1.106 4.632v.787c0 .22-.182.401-.402.401v-.01Zm-11.503-5.688c-.765.655-1.271 1.496-1.519 2.525-.06.253.127.5.391.5h8.742a.404.404 0 0 0 .39-.5 4.646 4.646 0 0 0-1.48-2.514c-.874-.77-1.964-1.155-3.267-1.155-1.304 0-2.366.38-3.252 1.139l-.005.005Zm31.643-3.587-6.997 16.312a.397.397 0 0 1-.369.242h-3.609a.402.402 0 0 1-.368-.242l-6.998-16.312a.398.398 0 0 1 .368-.555h2.762a1.2 1.2 0 0 1 1.106.737l5.012 11.954 5.165-11.965c.193-.44.622-.726 1.101-.726h2.448a.4.4 0 0 1 .368.555h.011Zm14.403 1.057c1.336 1.204 2.002 3.025 2.002 5.462v8.83c0 .66-.539 1.2-1.199 1.2h-2.184a.404.404 0 0 1-.402-.402v-1.684c-.489.748-1.194 1.32-2.101 1.716-.908.397-2.003.595-3.285.595-1.281 0-2.404-.22-3.366-.655-.963-.435-1.706-1.045-2.228-1.826-.523-.782-.787-1.662-.787-2.647 0-1.54.572-2.772 1.716-3.702 1.145-.93 2.944-1.392 5.403-1.392h4.423v-.258c0-1.194-.358-2.113-1.073-2.756-.715-.639-1.777-.963-3.191-.963-.963 0-1.909.148-2.838.45-.765.248-1.436.573-2.003.98a.392.392 0 0 1-.572-.143l-1.183-2.195a.403.403 0 0 1 .116-.517c.836-.583 1.821-1.04 2.954-1.364a14.402 14.402 0 0 1 4.005-.545c2.519 0 4.45.605 5.782 1.81l.011.005Zm-3.653 12.113a3.708 3.708 0 0 0 1.524-1.672c.088-.193.126-.407.126-.622v-1.265a.403.403 0 0 0-.401-.402h-3.736c-2.305 0-3.46.76-3.46 2.278 0 .726.286 1.304.864 1.733.577.429 1.38.643 2.404.643 1.023 0 1.898-.23 2.673-.687l.006-.006Zm34.856-12.048c1.26 1.25 1.893 3.125 1.893 5.623v9.407c0 .22-.182.402-.402.402h-2.404c-.66 0-1.199-.54-1.199-1.2v-8.092c0-1.496-.33-2.624-.996-3.383-.66-.76-1.612-1.14-2.85-1.14-1.348 0-2.426.446-3.235 1.332-.814.886-1.215 2.151-1.215 3.796v8.285c0 .22-.182.402-.402.402h-2.404c-.66 0-1.199-.54-1.199-1.2v-8.092c0-1.496-.33-2.624-.996-3.383-.66-.76-1.612-1.14-2.85-1.14-1.37 0-2.453.44-3.251 1.316-.803.874-1.199 2.145-1.199 3.812v8.285c0 .22-.182.402-.402.402h-2.404c-.66 0-1.199-.54-1.199-1.2v-14.71c0-.66.539-1.2 1.199-1.2h2.212c.22 0 .401.182.401.402v1.777a6.138 6.138 0 0 1 2.404-1.76c.963-.407 2.03-.611 3.207-.611 1.282 0 2.421.242 3.411.72a5.543 5.543 0 0 1 2.355 2.13c.704-.897 1.612-1.596 2.723-2.102 1.111-.5 2.338-.754 3.686-.754 2.156 0 3.867.628 5.127 1.876h-.011Zm8.791 14.535c-1.392-.748-2.475-1.788-3.251-3.125-.781-1.337-1.172-2.844-1.172-4.533 0-1.689.391-3.19 1.172-4.517.781-1.325 1.865-2.36 3.251-3.108 1.386-.748 2.949-1.122 4.676-1.122 1.728 0 3.323.374 4.709 1.122 1.387.748 2.47 1.783 3.252 3.108.781 1.326 1.171 2.834 1.171 4.517 0 1.683-.39 3.202-1.171 4.533a8.194 8.194 0 0 1-3.252 3.125c-1.386.748-2.959 1.122-4.709 1.122-1.749 0-3.29-.374-4.676-1.122Zm8.335-3.78c.962-.984 1.441-2.277 1.441-3.878 0-1.6-.479-2.894-1.441-3.878-.963-.985-2.179-1.475-3.653-1.475-1.475 0-2.685.49-3.637 1.475-.951.984-1.424 2.277-1.424 3.878 0 1.6.473 2.894 1.424 3.878.952.985 2.162 1.475 3.637 1.475 1.474 0 2.69-.49 3.653-1.474Zm10.601 4.357c-1.167-.319-2.124-.715-2.878-1.182a.406.406 0 0 1-.137-.517l.814-1.607c.292-.583.996-.82 1.585-.539.528.253 1.111.473 1.754.655 1.079.308 2.14.462 3.191.462 2.393 0 3.587-.633 3.587-1.893 0-.6-.303-1.012-.913-1.248-.611-.237-1.585-.457-2.932-.672-1.409-.214-2.558-.456-3.444-.737a5.256 5.256 0 0 1-2.305-1.457c-.655-.694-.979-1.662-.979-2.9 0-1.623.676-2.92 2.035-3.895 1.359-.973 3.191-1.458 5.496-1.458 1.177 0 2.349.133 3.526.402.996.226 1.843.517 2.531.875.198.104.28.34.181.539l-.825 1.634a1.192 1.192 0 0 1-1.529.566c-1.194-.517-2.498-.775-3.912-.775-1.177 0-2.068.176-2.673.528-.605.352-.914.82-.914 1.392 0 .643.325 1.095.98 1.364.649.27 1.661.517 3.025.754 1.37.214 2.487.462 3.367.737.875.28 1.629.748 2.261 1.408.627.66.946 1.601.946 2.822 0 1.601-.693 2.883-2.085 3.846-1.391.963-3.278 1.441-5.671 1.441-1.387 0-2.746-.181-4.071-.545h-.011Z"/>
  <path shape-rendering="auto" fill="#F2AB27" d="M19.216 0C8.604 0 0 8.604 0 19.216c0 9.886 7.465 18.028 17.065 19.095l.556.842c.346.511.93.847 1.595.847a1.92 1.92 0 0 0 1.595-.847l.556-.842c9.6-1.067 17.065-9.21 17.065-19.095C38.432 8.604 29.828 0 19.216 0Zm5.193 33.684 4.995-7.58.171-.259a12.237 12.237 0 0 0 1.937-6.629c0-6.794-5.507-12.295-12.296-12.295-6.14 0-11.228 4.494-12.147 10.375h3.912a8.455 8.455 0 1 1 15.36 6.475l-.11.17-1.26 1.91-.182-.28-1.716-2.609a5.381 5.381 0 1 0-9.237-3.752 5.381 5.381 0 0 0 7.311 5.023l1.716 2.608.727 1.106-2.223 3.377-2.145 3.263-2.146-3.263-4.863-7.382-.116-.176a8.504 8.504 0 0 1-1.105-2.63H7.08c.27 1.71.891 3.306 1.788 4.71l.083.12.099.149 4.99 7.57C8.102 31.555 3.861 25.877 3.861 19.21c0-8.489 6.882-15.371 15.37-15.371 8.49 0 15.371 6.882 15.371 15.37 0 6.668-4.241 12.34-10.177 14.474h-.017Zm-5.193-11.398a3.073 3.073 0 0 1-3.075-3.075c0-1.7 1.375-3.076 3.075-3.076 1.7 0 3.075 1.376 3.075 3.076 0 1.7-1.375 3.075-3.075 3.075Z"/>
</svg>