<svg xmlns="http://www.w3.org/2000/svg" fill="none" viewBox="0 0 203 40">
  <path fill="#fff" d="M45.391 16.852a7.416 7.416 0 0 1 2.934-2.71c1.235-.644 2.639-.965 4.206-.965 1.568 0 2.972.32 4.207.966a7.436 7.436 0 0 1 2.933 2.709c.721 1.162 1.08 2.513 1.08 4.06 0 1.547-.359 2.876-1.08 4.046a7.408 7.408 0 0 1-2.933 2.724c-1.235.645-2.64.966-4.207.966-1.567 0-2.971-.321-4.206-.966a7.408 7.408 0 0 1-2.934-2.724c-.72-1.17-1.08-2.52-1.08-4.046 0-1.526.36-2.901 1.08-4.06Zm3.708 6.27c.353.633.832 1.13 1.433 1.483a3.873 3.873 0 0 0 2 .531c.732 0 1.395-.178 1.999-.531a3.868 3.868 0 0 0 1.433-1.483c.353-.634.532-1.37.532-2.21 0-.84-.179-1.579-.532-2.224a3.732 3.732 0 0 0-1.433-1.483 3.95 3.95 0 0 0-2-.517c-.732 0-1.398.173-2 .517a3.732 3.732 0 0 0-1.432 1.483c-.354.645-.532 1.386-.532 2.224 0 .838.178 1.574.532 2.21Zm23.772-6.075c-.385-.516-1.01-.773-1.868-.773-.58 0-1.094.122-1.547.37a2.477 2.477 0 0 0-1.03 1.049c-.237.452-.353.989-.353 1.61v9.026H63.88V13.502h4.192v2.256c.452-.838 1.047-1.477 1.789-1.918.741-.44 1.637-.66 2.691-.66 1.763 0 3.074.5 3.932 1.498.858.998 1.29 2.39 1.29 4.174v9.479h-4.32v-9.026c0-.99-.192-1.74-.58-2.257h-.004Zm9.026-.338c.666-1.15 1.547-2.026 2.642-2.627a7.137 7.137 0 0 1 3.482-.902c1.226 0 2.347.312 3.305.934.954.624 1.707 1.509 2.256 2.659.549 1.15.823 2.53.823 4.142 0 1.611-.274 2.966-.823 4.125-.549 1.162-1.302 2.052-2.256 2.677-.958.621-2.058.934-3.305.934a7.081 7.081 0 0 1-3.482-.902c-1.095-.602-1.976-1.483-2.642-2.645-.665-1.162-.998-2.557-.998-4.192 0-1.634.333-3.056.998-4.206v.003Zm3.868 6.495a3.772 3.772 0 0 0 1.483 1.482 4.06 4.06 0 0 0 2 .517c.621 0 1.228-.166 1.82-.499.59-.333 1.075-.823 1.452-1.465.376-.645.563-1.419.563-2.321 0-.902-.187-1.675-.563-2.32-.377-.646-.862-1.133-1.451-1.466-.593-.333-1.197-.5-1.822-.5-.709 0-1.375.173-2 .517a3.773 3.773 0 0 0-1.482 1.483c-.365.645-.549 1.407-.549 2.289 0 .881.181 1.643.549 2.288v-.005Zm11.51-20.02v25.143h-4.192V3.185h4.192Zm6.801 24.5c-1.203-.645-2.134-1.54-2.788-2.691-.656-1.15-.983-2.507-.983-4.078 0-1.57.327-2.96.983-4.11.657-1.15 1.585-2.04 2.788-2.677 1.203-.633 2.621-.951 4.256-.951 1.635 0 3.024.295 4.174.887a6.04 6.04 0 0 1 2.627 2.578c.602 1.126.902 2.487.902 4.078 0 .192-.005.396-.014.613a5.227 5.227 0 0 1-.047.516h-13.282v-2.577h9.639l-1.129 1.483c.084-.129.166-.307.242-.532a1.84 1.84 0 0 0 .114-.563c0-.73-.135-1.355-.403-1.871a3.09 3.09 0 0 0-1.144-1.226c-.497-.3-1.075-.453-1.74-.453-.818 0-1.501.178-2.046.532-.549.353-.967.881-1.259 1.579-.289.698-.446 1.564-.467 2.595 0 .99.146 1.827.435 2.513.289.69.724 1.215 1.305 1.58.581.364 1.279.548 2.096.548.922 0 1.713-.178 2.37-.531.657-.353 1.197-.887 1.629-1.597l3.643 1.13c-.773 1.398-1.801 2.446-3.08 3.144-1.278.697-2.811 1.048-4.594 1.048-1.611 0-3.018-.322-4.224-.967h-.003ZM120.032 13.5l4.191 10.477 4.192-10.476h2.902l-7.091 15.955-7.09-15.955h2.901-.005Zm15.263 11.7a2.45 2.45 0 0 0 1.13.92c.485.204 1.036.306 1.661.306.794 0 1.509-.16 2.143-.484a3.817 3.817 0 0 0 1.515-1.37c.376-.589.563-1.272.563-2.046l.517 1.936c0 .945-.286 1.73-.856 2.352a5.166 5.166 0 0 1-2.096 1.387c-.829.3-1.649.453-2.466.453a5.777 5.777 0 0 1-2.531-.564 4.627 4.627 0 0 1-1.886-1.629c-.473-.709-.709-1.567-.709-2.577 0-1.44.511-2.595 1.533-3.465 1.021-.87 2.443-1.305 4.27-1.305 1.074 0 1.97.123 2.691.37.721.249 1.294.53 1.726.839.429.312.721.563.869.756v1.515a7.901 7.901 0 0 0-2.32-1.113 9.335 9.335 0 0 0-2.546-.338c-.837 0-1.52.108-2.046.32-.528.217-.919.518-1.176.903-.257.385-.388.85-.388 1.386 0 .538.134 1.043.402 1.451V25.2Zm-2.046-10.184c.558-.409 1.325-.818 2.306-1.226.978-.409 2.154-.613 3.529-.613 1.162 0 2.175.178 3.048.531.873.353 1.547.864 2.031 1.533.485.665.724 1.482.724 2.449v10.637h-2.577V18.043c0-.517-.085-.94-.257-1.273a2.015 2.015 0 0 0-.724-.791 3.382 3.382 0 0 0-1.08-.42 6.34 6.34 0 0 0-1.29-.129c-.73 0-1.393.085-1.982.257a6.707 6.707 0 0 0-1.498.613c-.408.236-.729.44-.966.613l-1.258-1.903-.006.006Zm36.296 13.314h-2.578v-9.026c0-1.267-.23-2.204-.692-2.805-.461-.602-1.176-.902-2.142-.902-.71 0-1.323.146-1.836.435a2.93 2.93 0 0 0-1.194 1.272c-.28.558-.421 1.226-.421 2v9.026h-2.577v-9.026c0-1.267-.231-2.204-.692-2.805-.461-.602-1.176-.902-2.143-.902-.709 0-1.322.146-1.836.435a2.934 2.934 0 0 0-1.193 1.272c-.281.558-.421 1.226-.421 2v9.026h-2.577V13.5h2.577v2.16c.453-.837 1.016-1.462 1.693-1.87.677-.409 1.477-.613 2.403-.613 1.03 0 1.917.242 2.659.724.741.481 1.284 1.164 1.629 2.046.516-.922 1.161-1.617 1.935-2.079.774-.46 1.655-.691 2.645-.691.989 0 1.868.225 2.577.677.71.452 1.252 1.112 1.629 1.982.377.87.563 1.918.563 3.144v9.347l-.008.002Zm4.559-11.414a7.432 7.432 0 0 1 2.756-2.741c1.162-.666 2.461-.998 3.9-.998s2.767.332 3.917.998a7.437 7.437 0 0 1 2.741 2.741c.677 1.162 1.016 2.493 1.016 3.996 0 1.504-.339 2.811-1.016 3.982a7.412 7.412 0 0 1-2.741 2.755c-1.15.666-2.455.999-3.917.999-1.463 0-2.741-.333-3.9-.999a7.364 7.364 0 0 1-2.756-2.755c-.677-1.17-1.016-2.499-1.016-3.982s.339-2.837 1.016-3.996Zm2.257 6.737a4.972 4.972 0 0 0 1.804 1.886c.761.461 1.628.692 2.595.692.966 0 1.833-.23 2.595-.692a5 5 0 0 0 1.804-1.886c.44-.794.659-1.707.659-2.74 0-1.034-.221-1.95-.659-2.756a4.858 4.858 0 0 0-1.804-1.886c-.762-.453-1.629-.677-2.595-.677-.967 0-1.834.225-2.595.677a4.836 4.836 0 0 0-1.804 1.886c-.441.805-.66 1.725-.66 2.755 0 1.03.219 1.944.66 2.741Zm17.263 1.387c.388.388.832.692 1.337.92a4.042 4.042 0 0 0 1.661.338c.73 0 1.305-.166 1.725-.5.42-.332.628-.79.628-1.368 0-.517-.167-.952-.5-1.305-.332-.356-.759-.657-1.272-.902a18.551 18.551 0 0 0-1.644-.692 18.012 18.012 0 0 1-1.95-.92 5.129 5.129 0 0 1-1.643-1.386c-.441-.57-.66-1.284-.66-2.143 0-.858.231-1.61.692-2.192.461-.58 1.063-1.01 1.804-1.29a6.462 6.462 0 0 1 2.306-.42 6.38 6.38 0 0 1 2.242.388 6.589 6.589 0 0 1 1.853 1.03c.538.43.958.926 1.259 1.483l-2.064 1.323a5.144 5.144 0 0 0-1.533-1.387c-.613-.365-1.304-.549-2.078-.549-.537 0-.998.12-1.387.353-.388.237-.58.602-.58 1.095 0 .385.148.73.452 1.03.301.301.689.57 1.162.806.473.236.966.461 1.483.677a20.38 20.38 0 0 1 2.352 1.113c.71.396 1.273.875 1.693 1.433.421.56.628 1.278.628 2.16 0 1.29-.467 2.364-1.401 3.223-.934.86-2.166 1.29-3.69 1.29-.989 0-1.88-.178-2.677-.532-.796-.356-1.465-.811-2.014-1.369-.548-.557-.963-1.13-1.24-1.707l2.031-1.258a8.3 8.3 0 0 0 1.031 1.258h-.006Z"/>
  <path fill="#FFAD57" d="M18.288 1.176c-9.449 0-17.112 7.66-17.112 17.112 0 8.757 6.58 15.979 15.066 16.992l2.046 3.544 2.046-3.544C28.82 34.27 35.4 27.048 35.4 18.288c0-9.452-7.66-17.112-17.112-17.112Zm4.361 30.093 4.48-7.762.05-.084a10.195 10.195 0 0 0 1.375-5.132c0-5.672-4.597-10.266-10.266-10.266S8.022 12.622 8.022 18.29c0 .406.023.806.07 1.197h2.417a7.873 7.873 0 0 1 15.564-2.396h-3.497a4.447 4.447 0 0 0-4.285-3.253 4.447 4.447 0 0 0-4.449 4.449 4.45 4.45 0 0 0 8.734 1.197h3.497a7.879 7.879 0 0 1-.963 2.738v.006l-3.299 5.706-2.303 3.988-1.217 2.107-1.217-2.107-2.304-3.988-3.295-5.706v-.006a4.845 4.845 0 0 1-.19-.342H8.67c.198.537.443 1.051.727 1.542l4.53 7.846c-5.42-1.82-9.327-6.943-9.327-12.98 0-7.56 6.13-13.69 13.69-13.69s13.69 6.13 13.69 13.69c0 6.034-3.905 11.16-9.326 12.981h-.006ZM20.34 18.288a2.053 2.053 0 0 1-4.104 0 2.053 2.053 0 0 1 4.104 0Z"/>
</svg>