<svg xmlns="http://www.w3.org/2000/svg" fill="none" viewBox="0 0 243 48">
  <path fill="#111827" d="M54.47 20.222a8.898 8.898 0 0 1 3.52-3.25c1.482-.775 3.167-1.16 5.048-1.16 1.88 0 3.566.385 5.047 1.16a8.922 8.922 0 0 1 3.52 3.25c.866 1.394 1.297 3.016 1.297 4.873 0 1.856-.431 3.45-1.296 4.855a8.89 8.89 0 0 1-3.52 3.268c-1.482.774-3.167 1.16-5.048 1.16-1.881 0-3.566-.386-5.048-1.16a8.89 8.89 0 0 1-3.52-3.268c-.865-1.405-1.296-3.023-1.296-4.855 0-1.832.43-3.482 1.296-4.873Zm4.448 7.524c.424.76.999 1.356 1.72 1.78.722.424 1.52.637 2.4.637a4.66 4.66 0 0 0 2.4-.637 4.644 4.644 0 0 0 1.72-1.78c.423-.76.637-1.642.637-2.651 0-1.01-.214-1.895-.638-2.67a4.478 4.478 0 0 0-1.72-1.779 4.739 4.739 0 0 0-2.4-.62c-.879 0-1.677.207-2.399.62a4.478 4.478 0 0 0-1.72 1.78c-.423.774-.637 1.663-.637 2.669 0 1.005.214 1.888.637 2.651Zm28.528-7.289c-.463-.62-1.212-.928-2.242-.928-.697 0-1.314.147-1.857.445a2.973 2.973 0 0 0-1.236 1.257c-.284.543-.424 1.188-.424 1.934v10.83h-5.03V16.201h5.03v2.708c.543-1.006 1.258-1.773 2.147-2.302.89-.529 1.965-.791 3.23-.791 2.116 0 3.688.598 4.718 1.796 1.03 1.199 1.549 2.87 1.549 5.01v11.373h-5.185v-10.83c0-1.188-.231-2.088-.697-2.708h-.003Zm10.83-.407c.8-1.38 1.857-2.43 3.171-3.152a8.562 8.562 0 0 1 4.179-1.082c1.471 0 2.816.374 3.965 1.12 1.145.75 2.049 1.811 2.707 3.192.659 1.38.988 3.037.988 4.97 0 1.934-.329 3.56-.988 4.95-.658 1.394-1.562 2.462-2.707 3.212-1.149.746-2.47 1.12-3.965 1.12a8.49 8.49 0 0 1-4.179-1.082c-1.314-.721-2.372-1.78-3.17-3.173-.8-1.394-1.198-3.069-1.198-5.03 0-1.962.399-3.668 1.198-5.048v.003Zm4.642 7.794a4.532 4.532 0 0 0 1.779 1.78c.746.413 1.549.62 2.4.62.746 0 1.474-.2 2.186-.6.707-.398 1.289-.987 1.74-1.758.452-.774.677-1.702.677-2.784 0-1.083-.225-2.011-.677-2.785-.451-.774-1.033-1.36-1.74-1.759-.712-.399-1.437-.599-2.186-.599-.851 0-1.65.207-2.4.62a4.531 4.531 0 0 0-1.779 1.78c-.438.774-.659 1.688-.659 2.746s.217 1.972.659 2.746v-.007ZM116.73 3.822v30.17h-5.03V3.822h5.03Zm8.161 29.399c-1.443-.774-2.56-1.85-3.345-3.23-.788-1.38-1.18-3.008-1.18-4.893 0-1.884.392-3.552 1.18-4.932.788-1.38 1.902-2.448 3.345-3.212 1.443-.76 3.146-1.142 5.107-1.142 1.962 0 3.629.354 5.01 1.065 1.38.711 2.431 1.74 3.152 3.093.722 1.352 1.083 2.984 1.083 4.893 0 .232-.007.477-.018.736-.014.26-.031.466-.056.62h-15.938v-3.093h11.566l-1.355 1.78a2.89 2.89 0 0 0 .291-.638c.091-.27.136-.497.136-.676 0-.876-.161-1.625-.483-2.245a3.707 3.707 0 0 0-1.373-1.472c-.596-.36-1.289-.543-2.088-.543-.981 0-1.801.214-2.456.638-.658.424-1.159 1.058-1.509 1.895-.347.837-.536 1.878-.561 3.114 0 1.188.175 2.193.522 3.016.347.827.869 1.457 1.566 1.895.697.438 1.534.659 2.515.659 1.107 0 2.056-.214 2.844-.638.788-.424 1.436-1.065 1.955-1.916l4.371 1.356c-.928 1.678-2.161 2.935-3.695 3.772-1.534.837-3.373 1.258-5.514 1.258-1.933 0-3.622-.386-5.068-1.16h-.004ZM144.038 16.2l5.03 12.573 5.03-12.572h3.482l-8.508 19.146-8.509-19.146h3.482-.007Zm18.316 14.04c.323.49.775.859 1.356 1.104.582.245 1.244.368 1.993.368.953 0 1.811-.193 2.571-.582a4.575 4.575 0 0 0 1.818-1.643c.452-.707.676-1.527.676-2.455l.62 2.322c0 1.135-.343 2.077-1.026 2.823a6.198 6.198 0 0 1-2.515 1.664 8.63 8.63 0 0 1-2.96.543 6.931 6.931 0 0 1-3.037-.676 5.555 5.555 0 0 1-2.263-1.954c-.567-.852-.851-1.881-.851-3.093 0-1.727.613-3.114 1.839-4.158 1.226-1.044 2.932-1.566 5.125-1.566 1.289 0 2.364.147 3.229.445.866.297 1.552.634 2.071 1.005.514.375.865.676 1.043.907v1.818c-.903-.62-1.832-1.065-2.784-1.334a11.203 11.203 0 0 0-3.055-.407c-1.005 0-1.825.13-2.455.386-.634.259-1.104.62-1.412 1.082-.308.463-.466 1.02-.466 1.664 0 .645.161 1.25.483 1.74v-.003Zm-2.455-12.221c.669-.49 1.59-.98 2.767-1.471 1.174-.49 2.585-.736 4.235-.736 1.394 0 2.61.214 3.657.638 1.048.423 1.857 1.036 2.438 1.839.582.798.869 1.779.869 2.938v12.765h-3.093v-12.34c0-.62-.102-1.129-.308-1.528a2.422 2.422 0 0 0-.869-.95 4.074 4.074 0 0 0-1.296-.504 7.61 7.61 0 0 0-1.548-.154c-.876 0-1.671.102-2.379.309-.711.206-1.31.451-1.797.735a13.5 13.5 0 0 0-1.159.736l-1.51-2.284-.007.007Zm43.555 15.976h-3.093v-10.83c0-1.52-.277-2.645-.831-3.367-.553-.721-1.411-1.082-2.571-1.082-.851 0-1.587.175-2.203.522a3.522 3.522 0 0 0-1.433 1.527c-.336.67-.504 1.471-.504 2.4v10.83h-3.093v-10.83c0-1.52-.277-2.645-.83-3.367-.554-.721-1.412-1.082-2.571-1.082-.852 0-1.587.175-2.204.522a3.519 3.519 0 0 0-1.432 1.527c-.337.67-.505 1.471-.505 2.4v10.83h-3.093V16.201h3.093v2.592c.543-1.005 1.219-1.755 2.032-2.245.813-.49 1.772-.736 2.883-.736 1.236 0 2.301.29 3.191.869.89.578 1.541 1.397 1.954 2.455.62-1.107 1.395-1.94 2.323-2.494.928-.553 1.986-.83 3.173-.83 1.188 0 2.242.27 3.093.813.852.543 1.503 1.334 1.955 2.378.452 1.044.676 2.302.676 3.773v11.216l-.01.003Zm5.471-13.695a8.92 8.92 0 0 1 3.307-3.29c1.394-.799 2.953-1.198 4.68-1.198 1.727 0 3.32.4 4.7 1.198a8.924 8.924 0 0 1 3.29 3.29c.812 1.393 1.219 2.99 1.219 4.795 0 1.804-.407 3.373-1.219 4.778a8.894 8.894 0 0 1-3.29 3.306c-1.38.799-2.945 1.198-4.7 1.198-1.755 0-3.29-.4-4.68-1.198a8.844 8.844 0 0 1-3.307-3.306c-.813-1.405-1.219-2.999-1.219-4.778 0-1.78.406-3.405 1.219-4.796Zm2.708 8.084a5.97 5.97 0 0 0 2.165 2.263c.914.553 1.954.83 3.114.83 1.159 0 2.199-.277 3.114-.83a5.993 5.993 0 0 0 2.164-2.263c.529-.953.792-2.05.792-3.29 0-1.24-.266-2.34-.792-3.306a5.82 5.82 0 0 0-2.164-2.263c-.915-.543-1.955-.813-3.114-.813-1.16 0-2.2.27-3.114.813a5.794 5.794 0 0 0-2.165 2.263c-.529.967-.792 2.07-.792 3.307 0 1.236.263 2.333.792 3.289Zm20.716 1.664c.466.466.998.83 1.604 1.103.606.27 1.272.406 1.993.406.876 0 1.566-.2 2.07-.599.505-.399.753-.949.753-1.642 0-.62-.199-1.142-.598-1.566-.4-.427-.911-.788-1.528-1.083a22.254 22.254 0 0 0-1.972-.83 21.685 21.685 0 0 1-2.34-1.103 6.147 6.147 0 0 1-1.972-1.664c-.529-.683-.792-1.541-.792-2.571 0-1.03.277-1.934.831-2.63.553-.698 1.275-1.213 2.164-1.549a7.76 7.76 0 0 1 2.768-.504c.956 0 1.849.154 2.69.465.837.309 1.58.722 2.224 1.237a5.799 5.799 0 0 1 1.51 1.78l-2.477 1.586a6.157 6.157 0 0 0-1.839-1.664c-.735-.438-1.565-.658-2.494-.658-.644 0-1.198.143-1.663.424-.466.283-.698.721-.698 1.313 0 .463.179.876.543 1.237.361.36.827.683 1.395.966.567.284 1.159.554 1.779.813 1.03.413 1.972.858 2.823 1.335.851.476 1.528 1.05 2.032 1.72.504.672.753 1.534.753 2.592 0 1.548-.56 2.837-1.681 3.867-1.121 1.033-2.599 1.548-4.428 1.548-1.187 0-2.256-.213-3.212-.637-.956-.428-1.758-.974-2.417-1.643-.659-.67-1.156-1.356-1.489-2.05l2.438-1.509a9.967 9.967 0 0 0 1.237 1.51h-.007Z"/>
  <path fill="#FFAD57" d="M21.946 1.412c-11.34 0-20.534 9.191-20.534 20.534 0 10.508 7.895 19.174 18.078 20.39l2.456 4.252 2.455-4.252c10.183-1.212 18.078-9.878 18.078-20.39 0-11.343-9.191-20.534-20.533-20.534Zm5.233 36.11 5.377-9.313.06-.102a12.233 12.233 0 0 0 1.566-4.722c.055-.473.083-.952.083-1.436 0-6.806-5.517-12.32-12.32-12.32-6.802 0-12.319 5.518-12.319 12.32 0 .487.028.967.084 1.436h2.9a9.447 9.447 0 0 1 9.339-10.883c4.729 0 8.645 3.475 9.339 8.007H27.09a5.337 5.337 0 0 0-5.142-3.902 5.337 5.337 0 0 0-5.338 5.339 5.34 5.34 0 0 0 10.48 1.436h4.197a9.452 9.452 0 0 1-1.156 3.285v.007l-3.959 6.849-2.763 4.784-1.46 2.53-1.462-2.53-2.763-4.785-3.955-6.848v-.007a5.787 5.787 0 0 1-.228-.41h-3.138c.238.645.532 1.262.872 1.85l5.436 9.416C10.206 35.337 5.52 29.189 5.52 21.946c0-9.073 7.356-16.429 16.428-16.429 9.072 0 16.428 7.356 16.428 16.429 0 7.24-4.686 13.391-11.191 15.577h-.007Zm-2.77-15.576a2.464 2.464 0 0 1-4.926 0 2.464 2.464 0 0 1 4.925 0Z"/>
</svg>