<svg xmlns="http://www.w3.org/2000/svg" fill="none" viewBox="0 0 282 48">
  <path fill="#fff" d="M55.874 25.63c0-6.184 5.157-11.194 12.05-11.194 6.894 0 12.05 5.014 12.05 11.194 0 6.18-5.156 11.193-12.05 11.193-6.893 0-12.05-4.971-12.05-11.194Zm17.884.042c0-3.382-2.578-5.972-5.834-5.972s-5.834 2.59-5.834 5.972c0 3.382 2.535 5.93 5.834 5.93 3.3 0 5.834-2.59 5.834-5.93Zm7.945 8.688V16.899c0-1.292.72-2.004 2.03-2.004h2.492c1.312 0 2.029.712 2.029 2.004v1.42c1.055-2.466 3.38-3.886 6.593-3.886 5.834 0 7.949 4.51 7.949 9.566v10.358c0 1.293-.759 2.005-2.072 2.005H98.27c-1.313 0-2.029-.712-2.029-2.005v-9.9c0-3.01-1.184-4.764-3.423-4.764-2.24 0-4.564 1.712-4.564 5.721v8.94c0 1.292-.721 2.004-2.03 2.004h-2.492c-1.308 0-2.029-.712-2.029-2.005v.009Zm22.62-8.73c0-6.307 4.354-11.194 10.484-11.194 2.832 0 5.371 1.085 6.933 3.51V8.171c0-1.293.759-2.005 2.072-2.005h2.453c1.309 0 2.029.712 2.029 2.005V34.36c0 1.293-.72 2.005-2.029 2.005h-2.453c-1.309 0-2.072-.712-2.072-2.005v-1.005c-1.566 2.382-4.101 3.467-6.933 3.467-6.13 0-10.484-4.844-10.484-11.193Zm17.545 0c-.043-3.425-2.239-6.015-5.581-6.015-3.341 0-5.409 2.717-5.409 6.015 0 3.297 2.029 6.014 5.409 6.014 3.381 0 5.538-2.59 5.581-6.014Zm8.207.084c0-6.056 4.607-11.278 11.921-11.278 6.173 0 11.248 3.675 11.544 10.528.043 1.212-.802 1.755-2.072 1.755h-15.135c-.085 2.547 2.493 5.014 6.68 5.014 1.565 0 3.17-.377 4.817-1.293 1.141-.627 2.072-.542 2.874.42l.463.585c.846 1.004.76 2.132-.381 2.966-2.493 1.798-5.41 2.425-8.202 2.425-7.778 0-12.514-4.972-12.514-11.113l.005-.009Zm17.335-2.59c-.592-2.881-3.085-3.801-5.328-3.801-2.244 0-4.861 1.004-5.581 3.802h10.909Zm14.915 11.699-7.443-17.585c-.592-1.378.043-2.34 1.566-2.34h2.707c1.184 0 1.943.5 2.325 1.628l4.65 12.825 4.693-12.825c.382-1.085 1.141-1.628 2.325-1.628h2.75c1.523 0 2.158.962 1.566 2.34l-7.443 17.585c-.425 1.042-1.227 1.547-2.368 1.547h-2.917c-1.184 0-1.943-.5-2.411-1.547Zm14.839-9.193c0-6.307 4.354-11.194 10.441-11.194 2.874 0 5.409 1.085 6.975 3.51v-1.043c0-1.293.721-2.005 2.029-2.005h2.492c1.309 0 2.029.712 2.029 2.005v17.462c0 1.293-.72 2.005-2.029 2.005h-2.492c-1.313 0-2.029-.712-2.029-2.005V33.36c-1.566 2.382-4.101 3.467-6.975 3.467-6.087 0-10.441-4.844-10.441-11.193v-.005Zm17.502 0c0-3.425-2.197-6.015-5.538-6.015-3.342 0-5.41 2.717-5.41 6.015 0 3.297 1.986 6.014 5.41 6.014 3.423 0 5.538-2.59 5.538-6.014Zm9.596 8.73V16.899c0-1.292.721-2.004 2.029-2.004h2.492c1.313 0 2.03.712 2.03 2.004v1.42c.845-2.466 3.17-3.886 5.877-3.886 2.492 0 4.903 1.042 6.301 3.717 2.029-3.175 4.522-3.717 6.975-3.717 5.624 0 7.992 4.552 7.992 9.608v10.316c0 1.293-.759 2.005-2.072 2.005h-2.454c-1.312 0-2.029-.712-2.029-2.005V24.333c0-3.01-1.184-4.637-3.127-4.637-1.819 0-3.805 1.462-3.891 5.387v9.273c0 1.293-.72 2.005-2.029 2.005h-2.492c-1.313 0-2.029-.712-2.029-2.005V24.333c0-3.01-1.141-4.637-3.084-4.637-1.944 0-3.934 1.59-3.934 5.599v9.066c0 1.293-.721 2.005-2.029 2.005h-2.493c-1.308 0-2.029-.712-2.029-2.005h-.004Zm35.138-8.73c0-6.184 5.156-11.194 12.05-11.194 6.893 0 12.05 5.014 12.05 11.194 0 6.18-5.157 11.193-12.05 11.193-6.894 0-12.05-4.971-12.05-11.194Zm17.884.042c0-3.382-2.579-5.972-5.834-5.972-3.256 0-5.835 2.59-5.835 5.972 0 3.382 2.536 5.93 5.835 5.93 3.298 0 5.834-2.59 5.834-5.93Zm6.932 6.849c-.635-1.254.043-2.17 1.351-2.505l1.309-.292c1.141-.293 1.647.25 2.535 1.127.759.835 1.9 1.255 3.256 1.255 1.647 0 2.792-.75 2.792-1.878 0-.92-.634-1.377-2.029-1.882l-2.664-.92c-2.239-.711-6.13-2.339-6.13-6.225 0-3.887 3.381-6.77 8.074-6.77 2.788 0 5.328.878 6.932 3.26.845 1.212.21 2.297-1.184 2.632l-1.184.293c-1.098.292-1.69-.085-2.454-.793-.592-.585-1.351-.793-2.115-.793-1.351 0-2.196.835-2.196 1.84 0 .92.845 1.377 1.986 1.755l2.707 1.004c4.483 1.462 6.087 3.844 6.173 6.476 0 4.51-4.058 6.727-8.751 6.727-3.848 0-6.975-1.42-8.412-4.302l.004-.009Z"/>
  <path fill="url(#a)" d="M23.336 0C10.45 0 0 10.325 0 23.057 0 34.92 9.069 44.69 20.724 45.97l.673 1.013A2.336 2.336 0 0 0 23.332 48c.807 0 1.514-.403 1.935-1.017l.678-1.013c11.66-1.28 20.724-11.05 20.724-22.913C46.672 10.325 36.223 0 23.336 0Zm6.31 40.422 6.066-9.1.206-.314a14.579 14.579 0 0 0 2.355-7.955c0-8.15-6.687-14.758-14.937-14.758-7.455 0-13.633 5.395-14.752 12.452h4.753c1.055-4.493 5.135-7.841 10-7.841 5.67 0 10.27 4.543 10.27 10.147 0 2.013-.593 3.89-1.618 5.467l-.137.204-1.528 2.293-.223-.335-2.084-3.128a6.403 6.403 0 0 0 1.853-4.505c0-3.565-2.926-6.456-6.534-6.456-3.607 0-6.533 2.891-6.533 6.456 0 3.564 2.926 6.455 6.533 6.455.824 0 1.613-.153 2.343-.428l2.084 3.127.884 1.327-2.698 4.052-2.608 3.912-2.608-3.912-5.908-8.858-.141-.212v-.009a9.893 9.893 0 0 1-1.347-3.145H8.584a14.581 14.581 0 0 0 2.17 5.65l.1.149.12.178 6.056 9.087C9.824 37.866 4.672 31.055 4.672 23.057c0-10.19 8.356-18.446 18.669-18.446 10.312 0 18.669 8.257 18.669 18.446 0 7.998-5.152 14.809-12.36 17.365h-.003Zm-6.31-13.678c-2.063 0-3.732-1.653-3.732-3.687s1.673-3.688 3.732-3.688c2.06 0 3.733 1.654 3.733 3.688 0 2.034-1.674 3.687-3.733 3.687Z"/>
  <defs>
    <linearGradient id="a" x1="23.336" x2="23.336" y1="0" y2="48" gradientUnits="userSpaceOnUse">
      <stop stop-color="#FFD400"/>
      <stop offset="1" stop-color="#F2AB27"/>
    </linearGradient>
  </defs>
</svg>