<svg xmlns="http://www.w3.org/2000/svg" fill="none" viewBox="0 0 47 48">
  <path fill="url(#a)" d="M23.336 0C10.45 0 0 10.325 0 23.057 0 34.92 9.069 44.69 20.724 45.97l.673 1.013A2.336 2.336 0 0 0 23.332 48c.807 0 1.514-.403 1.935-1.017l.678-1.013c11.66-1.28 20.724-11.05 20.724-22.913C46.672 10.325 36.223 0 23.336 0Zm6.31 40.422 6.066-9.1.206-.314a14.579 14.579 0 0 0 2.355-7.955c0-8.15-6.687-14.758-14.937-14.758-7.455 0-13.633 5.395-14.752 12.452h4.753c1.055-4.493 5.135-7.841 10-7.841 5.67 0 10.27 4.543 10.27 10.147 0 2.013-.593 3.89-1.618 5.467l-.137.204-1.528 2.293-.223-.335-2.084-3.128a6.403 6.403 0 0 0 1.853-4.505c0-3.565-2.926-6.456-6.534-6.456-3.607 0-6.533 2.891-6.533 6.456 0 3.564 2.926 6.455 6.533 6.455.824 0 1.613-.153 2.343-.428l2.084 3.127.884 1.327-2.698 4.052-2.608 3.912-2.608-3.912-5.908-8.858-.141-.212v-.009a9.893 9.893 0 0 1-1.347-3.145H8.584a14.581 14.581 0 0 0 2.17 5.65l.1.149.12.178 6.056 9.087C9.824 37.866 4.672 31.055 4.672 23.057c0-10.19 8.356-18.446 18.669-18.446 10.312 0 18.669 8.257 18.669 18.446 0 7.998-5.152 14.809-12.36 17.365h-.003Zm-6.31-13.678c-2.063 0-3.732-1.653-3.732-3.687s1.673-3.688 3.732-3.688c2.06 0 3.733 1.654 3.733 3.688 0 2.034-1.674 3.687-3.733 3.687Z"/>
  <defs>
    <linearGradient id="a" x1="23.336" x2="23.336" y1="0" y2="48" gradientUnits="userSpaceOnUse">
      <stop stop-color="#FFD400"/>
      <stop offset="1" stop-color="#F2AB27"/>
    </linearGradient>
  </defs>
</svg>