<svg xmlns="http://www.w3.org/2000/svg" fill="none" viewBox="0 0 16 16">
  <g clip-path="url(#a)">
    <path fill="currentColor" fill-rule="evenodd" d="M4.71.803a.75.75 0 0 1 .53-.22h5.52a.75.75 0 0 1 .53.22l3.907 3.907c.14.14.22.331.22.53v5.52a.75.75 0 0 1-.22.53l-3.907 3.907a.75.75 0 0 1-.53.22H5.24a.75.75 0 0 1-.53-.22L.803 11.29a.75.75 0 0 1-.22-.53V5.24a.75.75 0 0 1 .22-.53L4.71.803Zm.84 1.28L2.084 5.551v4.898l3.468 3.468h4.898l3.468-3.468V5.551L10.45 2.083H5.551ZM8 4.583a.75.75 0 0 1 .75.75V8a.75.75 0 0 1-1.5 0V5.333a.75.75 0 0 1 .75-.75Zm0 5.334a.75.75 0 1 0 0 1.5h.007a.75.75 0 0 0 0-1.5H8Z" clip-rule="evenodd"/>
  </g>
</svg>