<svg xmlns="http://www.w3.org/2000/svg" fill="none" viewBox="0 0 16 16">
  <path fill="currentColor" d="M15.371 6.648a8.86 8.86 0 0 1 .129 1.525c0 2.281-.804 4.21-2.204 5.517h.002c-1.224 1.146-2.907 1.81-4.902 1.81a7.344 7.344 0 0 1-5.23-2.197A7.554 7.554 0 0 1 1 8c0-1.989.78-3.896 2.166-5.303A7.345 7.345 0 0 1 8.396.5a7.054 7.054 0 0 1 4.948 1.952l-2.111 2.141A3.989 3.989 0 0 0 8.396 3.47c-1.93 0-3.569 1.32-4.153 3.097-.31.931-.31 1.94 0 2.871h.003c.587 1.775 2.223 3.095 4.153 3.095.996 0 1.853-.259 2.516-.716h-.002c.385-.26.715-.595.969-.986a3.5 3.5 0 0 0 .509-1.293H8.396V6.649h6.975Z"/>
</svg>