<svg xmlns="http://www.w3.org/2000/svg" fill="none" viewBox="0 0 16 16">
  <path fill="currentColor" d="M8 .5C5.965.5 5.709.51 4.91.545c-.8.037-1.345.163-1.823.349-.5.188-.953.483-1.328.865a3.682 3.682 0 0 0-.865 1.329c-.186.475-.312 1.02-.349 1.817C.509 5.708.5 5.963.5 8.001c0 2.036.01 2.291.045 3.09.037.8.163 1.344.349 1.822.192.493.448.91.865 1.328a3.66 3.66 0 0 0 1.328.865c.478.186 1.021.312 1.82.349.8.036 1.056.045 3.093.045s2.291-.01 3.092-.045c.798-.037 1.344-.163 1.821-.349.5-.188.954-.483 1.328-.865.417-.417.673-.835.865-1.329.185-.477.312-1.021.349-1.82.036-.8.045-1.055.045-3.092s-.01-2.292-.045-3.093c-.037-.798-.164-1.343-.349-1.82a3.68 3.68 0 0 0-.865-1.328 3.667 3.667 0 0 0-1.329-.865C12.434.708 11.89.582 11.091.545 10.29.509 10.036.5 7.998.5h.003H8Zm-.672 1.352H8c2.002 0 2.24.006 3.03.043.731.033 1.129.156 1.393.258.35.136.6.299.863.561.262.263.424.512.56.863.103.263.225.66.258 1.392.037.79.044 1.028.044 3.03 0 2-.007 2.239-.044 3.03-.033.73-.156 1.127-.258 1.391a2.32 2.32 0 0 1-.561.862 2.316 2.316 0 0 1-.863.56c-.262.104-.66.226-1.392.26-.79.035-1.028.043-3.03.043-2.003 0-2.24-.008-3.031-.044-.731-.034-1.128-.155-1.392-.259a2.323 2.323 0 0 1-.863-.56 2.326 2.326 0 0 1-.562-.863c-.102-.263-.225-.66-.258-1.392-.036-.79-.043-1.027-.043-3.03s.007-2.24.043-3.03c.034-.731.156-1.129.259-1.393.136-.35.299-.6.561-.862.263-.263.512-.425.863-.561.264-.103.66-.225 1.392-.259.692-.032.96-.041 2.358-.042v.002Zm4.676 1.245a.9.9 0 1 0 0 1.8.9.9 0 0 0 0-1.8ZM8.001 4.149a3.852 3.852 0 1 0-.12 7.703A3.852 3.852 0 0 0 8 4.15Zm0 1.35A2.5 2.5 0 1 1 8 10.5a2.5 2.5 0 0 1 0-5Z"/>
</svg>