<svg xmlns="http://www.w3.org/2000/svg" fill="none" viewBox="0 0 16 16">
  <path fill="currentColor" d="M8 14.125a6.125 6.125 0 1 1 0-12.25 6.125 6.125 0 0 1 0 12.25ZM8 15A7 7 0 1 0 8 1a7 7 0 0 0 0 14Z"/>
  <path fill="currentColor" d="M10.4 5.2a.211.211 0 0 0-.018.021L7.39 9.308 5.587 7.374a.622.622 0 0 0-.452-.186.626.626 0 0 0-.446.203.718.718 0 0 0-.189.477c-.003.18.06.354.174.485l2.28 2.445a.644.644 0 0 0 .214.152.608.608 0 0 0 .505-.01.649.649 0 0 0 .21-.16l3.439-4.61a.721.721 0 0 0 .178-.49.718.718 0 0 0-.194-.482.625.625 0 0 0-.454-.198.625.625 0 0 0-.453.2Z"/>
</svg>