<svg xmlns="http://www.w3.org/2000/svg" fill="none" viewBox="0 0 16 16">
  <path fill="currentColor" d="M5.667 11.429a.57.57 0 0 1 .17-.405.59.59 0 0 1 .413-.167h3.5a.59.59 0 0 1 .412.168.566.566 0 0 1 0 .808.59.59 0 0 1-.412.167h-3.5a.59.59 0 0 1-.412-.167.565.565 0 0 1-.171-.404ZM3.333 8c0-.152.062-.297.171-.404a.59.59 0 0 1 .413-.167h8.166a.59.59 0 0 1 .413.167.566.566 0 0 1 0 .808.59.59 0 0 1-.413.167H3.917a.59.59 0 0 1-.413-.167.566.566 0 0 1-.17-.404ZM1 4.571c0-.151.061-.296.17-.404A.59.59 0 0 1 1.584 4h12.834a.59.59 0 0 1 .412.167.566.566 0 0 1 0 .808.59.59 0 0 1-.412.168H1.583a.59.59 0 0 1-.412-.168A.566.566 0 0 1 1 4.571Z"/>
</svg>