<svg xmlns="http://www.w3.org/2000/svg" fill="none" viewBox="0 0 16 16">
  <path fill="currentColor" fill-rule="evenodd" d="M4.827 1.917a2.083 2.083 0 0 0-1.865 1.155L.669 7.652A.747.747 0 0 0 .583 8v4a2.083 2.083 0 0 0 2.084 2.083h10.666A2.083 2.083 0 0 0 15.417 12V8a.748.748 0 0 0-.086-.35l-2.293-4.577v-.001a2.083 2.083 0 0 0-1.864-1.155H4.826Zm8.625 5.333-1.756-3.508-.001-.002a.583.583 0 0 0-.522-.323H4.827a.583.583 0 0 0-.522.323l-.672-.333.671.335L2.548 7.25h2.785a.75.75 0 0 1 .624.334L7.068 9.25h1.864l1.11-1.666a.75.75 0 0 1 .625-.334h2.785ZM2.083 8.75V12a.583.583 0 0 0 .584.583h10.666a.583.583 0 0 0 .584-.583V8.75h-2.849l-1.11 1.666a.75.75 0 0 1-.625.334H6.667a.75.75 0 0 1-.624-.334L4.932 8.75H2.083Z" clip-rule="evenodd"/>
</svg>