<svg xmlns="http://www.w3.org/2000/svg" fill="none" viewBox="0 0 16 16">
  <path fill="currentColor" fill-rule="evenodd" d="M2.182 3.678a.586.586 0 0 1 .485-.261h10.667c.2 0 .38.104.485.261L8 7.751 2.182 3.678Zm-1.598.309V12c0 1.148.935 2.083 2.083 2.083h10.667A2.087 2.087 0 0 0 15.417 12V4.01m-1.5 1.43V12c0 .32-.264.583-.583.583H2.667A.587.587 0 0 1 2.084 12V5.44L7.57 9.282a.75.75 0 0 0 .86 0l5.487-3.84Zm1.5-1.453a2.087 2.087 0 0 0-2.083-2.07H2.667a2.087 2.087 0 0 0-2.083 2.07" clip-rule="evenodd"/>
</svg>