<svg xmlns="http://www.w3.org/2000/svg" fill="none" viewBox="0 0 14 15">
  <path fill="#009959" fill-rule="evenodd" d="M13.125 7.5a6.125 6.125 0 1 1-12.25 0 6.125 6.125 0 0 1 12.25 0ZM7 3.225a.6.6 0 0 1 .6.6v.45h1.15a.6.6 0 0 1 0 1.2H7.6V6.9h.275c.498 0 .966.212 1.305.575.337.361.52.843.52 1.338 0 .494-.183.976-.52 1.337a1.785 1.785 0 0 1-1.305.575H7.6v.45a.6.6 0 1 1-1.2 0v-.45H4.9a.6.6 0 1 1 0-1.2h1.5V8.1h-.275c-.498 0-.966-.212-1.305-.575a1.962 1.962 0 0 1-.52-1.338c0-.494.183-.976.52-1.337a1.785 1.785 0 0 1 1.305-.575H6.4v-.45a.6.6 0 0 1 .6-.6Zm-.6 2.25h-.275a.585.585 0 0 0-.428.194.762.762 0 0 0-.197.518c0 .202.075.388.197.52a.587.587 0 0 0 .428.193H6.4V5.475ZM7.6 8.1v1.425h.275a.585.585 0 0 0 .428-.194.762.762 0 0 0 .197-.518.762.762 0 0 0-.197-.52.585.585 0 0 0-.428-.193H7.6Z" clip-rule="evenodd"/>
</svg>