<svg xmlns="http://www.w3.org/2000/svg" fill="none" viewBox="0 0 16 16">
  <path fill="currentColor" fill-rule="evenodd" d="M6.254 2.254c.11-.11.258-.17.413-.17h2.666a.583.583 0 0 1 .584.583V3H6.083v-.333c0-.155.062-.303.171-.413ZM4.584 3v-.333A2.083 2.083 0 0 1 6.666.583h2.666a2.083 2.083 0 0 1 2.084 2.084V3H14a1 1 0 1 1 0 2h-.583v8.333a2.083 2.083 0 0 1-2.084 2.084H4.667a2.083 2.083 0 0 1-2.084-2.084V5H2a1 1 0 1 1 0-2h2.583Zm-.5 2v8.333a.583.583 0 0 0 .583.584h6.666a.583.583 0 0 0 .584-.584V5H4.083Zm2.583 1.583a.75.75 0 0 1 .75.75v4a.75.75 0 0 1-1.5 0v-4a.75.75 0 0 1 .75-.75Zm3.416.75a.75.75 0 1 0-1.5 0v4a.75.75 0 0 0 1.5 0v-4Z" clip-rule="evenodd"/>
</svg>